{"glyphs":{"0":{"ha":913,"x_min":0,"x_max":0,"o":"m 357 -7 l 556 -7 l 642 50 l 671 107 l 699 193 l 699 888 l 671 944 l 642 1001 l 556 1058 l 357 1058 l 271 1001 l 243 944 l 214 888 l 214 193 l 243 108 l 271 51 z m 256 938 l 282 992 l 363 1044 l 551 1044 l 631 992 l 658 938 l 683 886 l 228 215 l 228 883 z m 658 114 l 631 60 l 551 7 l 363 7 l 282 60 l 256 114 l 229 192 l 685 864 l 685 194 z "},"1":{"ha":913,"x_min":0,"x_max":0,"o":"m 608 -7 l 608 7 l 422 7 l 422 1094 l 217 918 l 226 908 l 408 1064 l 408 7 l 221 7 l 221 -7 z "},"2":{"ha":913,"x_min":0,"x_max":0,"o":"m 210 -7 l 692 -7 l 692 7 l 233 7 l 669 743 l 671 744 l 699 858 l 671 943 l 642 1001 l 556 1058 l 414 1058 l 299 1001 l 243 888 l 215 776 l 228 774 l 256 883 l 310 990 l 417 1044 l 551 1044 l 631 992 l 658 938 l 685 857 l 657 750 z "},"3":{"ha":913,"x_min":0,"x_max":0,"o":"m 556 -7 l 638 39 l 667 81 l 699 136 l 699 610 l 642 725 l 510 751 l 704 1058 l 221 1058 l 221 1044 l 679 1044 l 486 742 l 632 713 l 685 607 l 685 140 l 656 88 l 628 49 l 551 7 l 363 7 l 281 61 l 254 88 l 228 140 l 228 360 l 214 360 l 214 136 l 243 79 l 272 50 l 357 -7 z "},"4":{"ha":913,"x_min":0,"x_max":0,"o":"m 601 0 l 615 0 l 615 601 l 692 601 l 692 615 l 615 615 l 615 1051 l 601 1051 l 601 615 l 233 615 l 504 1047 l 492 1056 l 208 601 l 601 601 z "},"5":{"ha":913,"x_min":0,"x_max":0,"o":"m 658 60 l 633 33 l 553 7 l 361 7 l 281 33 l 256 58 l 228 139 l 228 360 l 214 360 l 214 138 l 243 51 l 274 22 l 358 -7 l 554 -7 l 640 22 l 671 51 l 699 138 l 699 610 l 669 668 l 613 725 l 556 754 l 229 754 l 229 1044 l 692 1044 l 692 1058 l 215 1058 l 215 740 l 551 740 l 604 714 l 658 660 l 685 607 l 685 139 z "},"6":{"ha":913,"x_min":0,"x_max":0,"o":"m 556 -7 l 642 50 l 671 107 l 671 108 l 699 193 l 699 554 l 671 639 l 642 696 l 556 754 l 358 754 l 272 696 l 243 640 l 228 594 l 229 857 l 256 938 l 282 992 l 363 1044 l 551 1044 l 632 992 l 658 938 l 686 856 l 699 860 l 671 943 l 642 1001 l 556 1058 l 358 1058 l 272 1001 l 243 943 l 215 858 l 215 664 l 214 664 l 214 196 l 243 108 l 272 50 l 358 -7 z m 228 382 l 228 478 l 229 553 l 256 635 l 282 688 l 363 740 l 551 740 l 632 688 l 658 633 l 685 553 l 685 194 l 658 114 l 632 60 l 551 7 l 363 7 l 282 60 l 256 114 l 228 199 z "},"7":{"ha":913,"x_min":0,"x_max":0,"o":"m 240 -3 l 535 518 l 649 518 l 649 532 l 543 532 l 710 826 l 711 828 l 711 1058 l 221 1058 l 221 1044 l 697 1044 l 697 832 l 528 532 l 400 532 l 400 518 l 519 518 l 228 4 z "},"8":{"ha":913,"x_min":0,"x_max":0,"o":"m 556 -7 l 642 50 l 671 107 l 671 108 l 699 193 l 699 306 l 671 418 l 642 475 l 565 526 l 642 576 l 671 633 l 699 718 l 699 831 l 671 943 l 642 1001 l 556 1058 l 357 1058 l 271 1001 l 243 943 l 214 831 l 214 718 l 243 635 l 271 576 l 347 526 l 271 475 l 243 418 l 214 306 l 214 193 l 243 108 l 271 50 l 357 -7 z m 631 992 l 657 939 l 685 829 l 685 721 l 658 639 l 631 586 l 551 533 l 363 533 l 282 586 l 256 639 l 228 721 l 228 829 l 256 939 l 282 992 l 363 1044 l 551 1044 z m 631 465 l 657 413 l 685 304 l 685 194 l 658 114 l 631 60 l 551 7 l 363 7 l 282 60 l 256 114 l 228 194 l 228 304 l 256 413 l 282 465 l 363 519 l 551 519 z "},"9":{"ha":913,"x_min":0,"x_max":0,"o":"m 685 669 l 685 574 l 683 499 l 657 417 l 631 364 l 550 311 l 361 311 l 281 364 l 254 418 l 228 499 l 228 857 l 254 938 l 281 992 l 361 1044 l 550 1044 l 631 992 l 657 938 l 685 853 z m 226 196 l 214 192 l 242 108 l 271 50 l 357 -7 l 554 -7 l 640 50 l 669 108 l 697 193 l 697 388 l 699 388 l 699 856 l 669 943 l 640 1001 l 554 1058 l 357 1058 l 271 1001 l 242 944 l 242 943 l 214 858 l 214 497 l 242 413 l 271 356 l 357 297 l 554 297 l 640 356 l 669 411 l 685 457 l 683 194 l 657 114 l 631 60 l 550 7 l 361 7 l 281 60 l 254 114 z "},"Ý":{"ha":1051,"x_min":0,"x_max":0,"o":"m 692 1267 l 692 1281 l 360 1281 l 360 1267 z m 533 0 l 533 468 l 836 1049 l 824 1054 l 526 485 l 228 1054 l 215 1049 l 519 468 l 519 0 z "},"ý":{"ha":913,"x_min":0,"x_max":0,"o":"m 278 879 l 500 933 l 500 935 l 613 990 l 606 1003 l 496 947 l 275 892 z m 500 -394 l 614 -337 l 671 -224 l 696 0 l 699 0 l 699 636 l 685 636 l 685 224 l 657 140 l 603 33 l 496 -21 l 361 -21 l 282 32 l 254 86 l 228 167 l 228 636 l 214 636 l 214 165 l 242 81 l 271 22 l 357 -35 l 499 -35 l 614 22 l 669 136 l 685 182 l 685 28 l 657 -219 l 604 -326 l 496 -381 l 389 -381 l 282 -326 l 256 -274 l 228 -192 l 215 -196 l 243 -279 l 272 -337 l 386 -394 z "},"¦":{"ha":553,"x_min":0,"x_max":0,"o":"m 269 635 l 283 635 l 283 1051 l 269 1051 z m 269 -69 l 283 -69 l 283 347 l 269 347 z "},"−":{"ha":1051,"x_min":0,"x_max":0,"o":"m 278 560 l 278 546 l 775 546 l 775 560 z "}," ":{"ha":913,"x_min":0,"x_max":0,"o":""},"!":{"ha":553,"x_min":0,"x_max":0,"o":"m 269 221 l 283 221 l 283 885 l 269 885 z m 307 -7 l 339 25 l 339 86 l 307 118 l 246 118 l 214 86 l 214 25 l 246 -7 z m 251 7 l 228 31 l 228 81 l 251 104 l 301 104 l 325 81 l 325 31 l 301 7 z "},"\"":{"ha":442,"x_min":0,"x_max":0,"o":"m 394 731 l 394 1053 l 381 1053 l 381 731 z m 228 731 l 228 1053 l 214 1053 l 214 731 z "},"#":{"ha":1107,"x_min":0,"x_max":0,"o":"m 339 -1 l 386 297 l 622 297 l 575 1 l 589 0 l 636 297 l 775 297 l 775 311 l 639 311 l 676 546 l 831 546 l 831 560 l 679 560 l 726 857 l 713 858 l 665 560 l 429 560 l 476 857 l 464 858 l 415 560 l 249 560 l 249 546 l 414 546 l 375 311 l 221 311 l 221 297 l 374 297 l 325 1 z m 389 311 l 426 546 l 663 546 l 625 311 z "},"$":{"ha":1051,"x_min":0,"x_max":0,"o":"m 414 -7 l 478 -7 l 478 -208 l 492 -208 l 492 -7 l 617 -7 l 617 -208 l 631 -208 l 631 -7 l 693 -7 l 781 50 l 808 108 l 838 193 l 836 253 l 836 306 l 838 389 l 808 447 l 779 476 l 722 504 l 631 538 l 631 1044 l 663 1044 l 717 1018 l 771 990 l 797 964 l 824 911 l 822 885 l 836 885 l 838 914 l 808 972 l 779 1001 l 722 1031 l 665 1058 l 631 1058 l 631 1190 l 617 1190 l 617 1058 l 492 1058 l 492 1190 l 478 1190 l 478 1058 l 414 1058 l 328 1029 l 243 944 l 214 888 l 214 801 l 243 717 l 272 658 l 329 631 l 478 578 l 478 7 l 417 7 l 335 35 l 282 61 l 256 114 l 228 196 l 214 192 l 242 108 l 272 50 l 329 21 z m 335 643 l 282 669 l 256 722 l 228 804 l 228 883 l 254 936 l 336 1018 l 417 1044 l 478 1044 l 478 592 z m 492 586 l 492 1044 l 617 1044 l 617 542 z m 492 7 l 492 572 l 617 528 l 617 7 z m 717 492 l 771 464 l 797 439 l 824 386 l 822 306 l 822 253 l 824 194 l 796 114 l 769 60 l 689 7 l 631 7 l 631 522 z "},"%":{"ha":885,"x_min":0,"x_max":0,"o":"m 307 768 l 339 800 l 339 861 l 307 892 l 246 892 l 214 861 l 214 800 l 246 768 z m 228 -3 l 671 882 l 658 889 l 215 3 z m 251 782 l 228 806 l 228 854 l 251 878 l 301 878 l 325 854 l 325 806 l 301 782 z m 639 -7 l 671 25 l 671 86 l 639 118 l 578 118 l 546 86 l 546 25 l 578 -7 z m 583 7 l 560 31 l 560 81 l 583 104 l 633 104 l 657 81 l 657 31 l 633 7 z "},"&":{"ha":940,"x_min":0,"x_max":0,"o":"m 488 -7 l 600 50 l 679 128 l 785 -4 l 796 4 l 686 140 l 714 331 l 700 333 l 675 156 l 492 392 l 422 483 l 433 492 l 546 576 l 603 661 l 631 747 l 601 807 l 544 864 l 458 893 l 372 864 l 315 835 l 257 749 l 285 661 l 314 606 l 397 494 l 401 488 l 343 449 l 288 421 l 231 364 l 175 281 l 146 222 l 175 107 l 261 21 l 374 -7 z m 325 613 l 299 667 l 272 746 l 324 825 l 378 851 l 458 878 l 538 851 l 590 799 l 617 746 l 590 667 l 536 586 l 426 504 l 414 494 z m 375 7 l 268 33 l 188 114 l 161 221 l 188 274 l 242 356 l 296 410 l 350 436 l 410 476 l 481 383 l 669 139 l 592 61 l 483 7 z "},"'":{"ha":442,"x_min":0,"x_max":0,"o":"m 228 731 l 228 1053 l 214 1053 l 214 731 z "},"(":{"ha":664,"x_min":0,"x_max":0,"o":"m 415 -7 l 415 7 l 335 7 l 228 114 l 228 938 l 335 1044 l 415 1044 l 415 1058 l 329 1058 l 214 943 l 214 108 l 329 -7 z "},")":{"ha":664,"x_min":0,"x_max":0,"o":"m 249 -7 l 335 -7 l 450 108 l 450 943 l 335 1058 l 249 1058 l 249 1044 l 329 1044 l 436 938 l 436 114 l 329 7 l 249 7 z "},"*":{"ha":913,"x_min":0,"x_max":0,"o":"m 282 715 l 388 846 l 493 715 l 504 724 l 399 856 l 557 935 l 550 947 l 394 869 l 394 1051 l 381 1051 l 381 869 l 225 947 l 218 935 l 376 856 l 271 724 z "},"+":{"ha":1051,"x_min":0,"x_max":0,"o":"m 532 261 l 532 546 l 775 546 l 775 560 l 532 560 l 532 844 l 518 844 l 518 560 l 278 560 l 278 546 l 518 546 l 518 261 z "},",":{"ha":553,"x_min":0,"x_max":0,"o":"m 297 -100 l 339 -58 l 339 86 l 307 118 l 246 118 l 214 86 l 214 25 l 246 -7 l 297 -7 z m 251 7 l 228 31 l 228 81 l 251 104 l 301 104 l 325 81 l 325 -53 l 311 -67 l 311 7 z "},"-":{"ha":442,"x_min":0,"x_max":0,"o":"m 331 311 l 331 325 l 111 325 l 111 311 z "},".":{"ha":553,"x_min":0,"x_max":0,"o":"m 307 -7 l 339 25 l 339 86 l 307 118 l 246 118 l 214 86 l 214 25 l 246 -7 z m 251 7 l 228 31 l 228 81 l 251 104 l 301 104 l 325 81 l 325 31 l 301 7 z "},"/":{"ha":774,"x_min":0,"x_max":0,"o":"m 228 -1 l 560 1049 l 547 1053 l 215 3 z "},":":{"ha":553,"x_min":0,"x_max":0,"o":"m 307 436 l 339 468 l 339 529 l 307 560 l 246 560 l 214 529 l 214 468 l 246 436 z m 251 450 l 228 474 l 228 522 l 251 546 l 301 546 l 325 522 l 325 474 l 301 450 z m 307 -7 l 339 25 l 339 86 l 307 118 l 246 118 l 214 86 l 214 25 l 246 -7 z m 251 7 l 228 31 l 228 81 l 251 104 l 301 104 l 325 81 l 325 31 l 301 7 z "},";":{"ha":553,"x_min":0,"x_max":0,"o":"m 307 436 l 339 468 l 339 529 l 307 560 l 246 560 l 214 529 l 214 468 l 246 436 z m 251 450 l 228 474 l 228 522 l 251 546 l 301 546 l 325 522 l 325 474 l 301 450 z m 297 -100 l 339 -58 l 339 86 l 307 118 l 246 118 l 214 86 l 214 25 l 246 -7 l 297 -7 z m 251 7 l 228 31 l 228 81 l 251 104 l 301 104 l 325 81 l 325 -53 l 311 -67 l 311 7 z "},"=":{"ha":1051,"x_min":0,"x_max":0,"o":"m 278 699 l 278 685 l 775 685 l 775 699 z m 278 421 l 278 407 l 775 407 l 775 421 z "},"?":{"ha":913,"x_min":0,"x_max":0,"o":"m 436 221 l 450 221 l 450 410 l 586 464 l 671 579 l 671 749 l 614 835 l 500 892 l 386 892 l 272 835 l 215 751 l 228 743 l 282 825 l 389 878 l 496 878 l 604 825 l 657 744 l 657 583 l 576 476 l 436 419 z m 474 -7 l 506 25 l 506 86 l 474 118 l 413 118 l 381 86 l 381 25 l 413 -7 z m 418 7 l 394 31 l 394 81 l 418 104 l 468 104 l 492 81 l 492 31 l 468 7 z "},"A":{"ha":940,"x_min":0,"x_max":0,"o":"m 825 -3 l 838 3 l 471 1072 l 104 3 l 118 -3 l 268 436 l 675 436 z m 471 1031 l 671 449 l 272 450 z "},"B":{"ha":1107,"x_min":0,"x_max":0,"o":"m 214 0 l 218 0 l 218 -7 l 721 -7 l 806 22 l 864 79 l 919 190 l 919 192 l 947 275 l 947 389 l 890 503 l 833 532 l 749 560 l 692 560 l 638 561 l 622 561 l 667 571 l 724 603 l 779 660 l 808 688 l 838 746 l 838 860 l 808 917 l 724 1001 l 667 1031 l 554 1058 l 214 1058 z m 228 1044 l 553 1044 l 661 1017 l 715 990 l 797 908 l 824 856 l 824 749 l 797 696 l 769 669 l 715 614 l 661 585 l 558 561 l 228 560 z m 228 546 l 554 546 l 560 547 l 638 547 l 692 546 l 746 546 l 828 519 l 881 493 l 933 386 l 933 278 l 907 196 l 851 88 l 799 33 l 718 7 l 228 7 z "},"C":{"ha":1051,"x_min":0,"x_max":0,"o":"m 582 -35 l 667 -6 l 751 50 l 781 79 l 810 164 l 796 168 l 768 88 l 743 61 l 661 7 l 581 -21 l 472 -21 l 390 7 l 308 61 l 283 88 l 256 168 l 228 471 l 228 581 l 260 885 l 283 965 l 308 990 l 390 1046 l 471 1072 l 581 1072 l 661 1046 l 743 990 l 768 965 l 796 883 l 810 888 l 781 972 l 751 1001 l 667 1058 l 582 1086 l 469 1086 l 385 1058 l 300 1001 l 271 972 l 246 888 l 214 582 l 214 469 l 242 165 l 271 79 l 300 50 l 385 -6 l 469 -35 z "},"D":{"ha":1051,"x_min":0,"x_max":0,"o":"m 214 -8 l 333 21 l 444 49 l 583 104 l 640 133 l 753 244 l 781 301 l 810 386 l 838 524 l 838 721 l 808 804 l 808 806 l 781 863 l 724 918 l 640 975 l 529 1029 l 444 1058 l 214 1058 z m 228 1044 l 442 1044 l 522 1017 l 633 963 l 715 907 l 769 854 l 796 800 l 824 718 l 824 526 l 796 389 l 768 307 l 742 253 l 632 144 l 578 117 l 440 63 l 331 33 l 228 8 z "},"E":{"ha":1051,"x_min":0,"x_max":0,"o":"m 608 546 l 608 560 l 228 560 l 228 1044 l 831 1044 l 831 1058 l 214 1058 l 214 -7 l 831 -7 l 831 7 l 228 7 l 228 546 z "},"F":{"ha":1051,"x_min":0,"x_max":0,"o":"m 214 0 l 228 0 l 228 546 l 608 546 l 608 560 l 228 560 l 228 1044 l 831 1044 l 831 1058 l 214 1058 z "},"G":{"ha":1051,"x_min":0,"x_max":0,"o":"m 582 -35 l 667 -6 l 751 50 l 781 79 l 810 165 l 810 444 l 781 501 l 750 532 l 526 532 l 526 518 l 744 518 l 769 494 l 796 440 l 796 167 l 768 88 l 743 61 l 661 7 l 581 -21 l 472 -21 l 390 7 l 308 61 l 283 88 l 256 168 l 228 471 l 228 581 l 260 885 l 283 965 l 308 990 l 390 1046 l 471 1072 l 581 1072 l 661 1046 l 743 990 l 768 965 l 796 883 l 810 888 l 781 972 l 751 1001 l 667 1058 l 582 1086 l 469 1086 l 385 1058 l 300 1001 l 271 972 l 246 888 l 214 582 l 214 469 l 242 165 l 271 79 l 300 50 l 385 -6 l 469 -35 z "},"H":{"ha":1051,"x_min":0,"x_max":0,"o":"m 214 0 l 228 0 l 228 521 b 278 546 249 532 272 543 l 774 546 l 824 521 l 824 0 l 838 0 l 838 1058 l 824 1058 l 824 536 l 776 560 l 274 560 l 228 538 l 228 1060 l 214 1060 z "},"I":{"ha":1051,"x_min":0,"x_max":0,"o":"m 226 1019 l 251 1044 l 497 1044 l 497 1058 l 246 1058 l 217 1029 z m 825 1019 l 835 1029 l 806 1058 l 499 1058 l 499 1044 l 518 1044 l 519 7 l 251 7 l 226 33 l 217 22 l 246 -7 l 806 -7 l 835 22 l 825 33 l 800 7 l 533 7 l 532 1044 l 800 1044 z "},"J":{"ha":913,"x_min":0,"x_max":0,"o":"m 471 -7 l 583 50 l 640 107 l 668 164 l 697 276 l 697 1058 l 683 1058 l 683 278 l 656 168 l 629 115 l 575 61 l 467 7 l 304 7 l 196 61 l 142 115 l 88 225 l 75 218 l 131 107 l 188 50 l 301 -7 z "},"K":{"ha":1051,"x_min":0,"x_max":0,"o":"m 228 0 l 228 385 l 393 576 l 414 597 l 825 -4 l 836 4 l 424 608 l 781 1047 l 769 1056 l 410 614 l 382 586 l 228 404 l 228 1058 l 214 1058 l 214 0 z "},"L":{"ha":1051,"x_min":0,"x_max":0,"o":"m 831 -7 l 831 7 l 228 7 l 228 1058 l 214 1058 l 214 -7 z "},"M":{"ha":1051,"x_min":0,"x_max":0,"o":"m 228 0 l 228 1018 l 519 357 b 526 353 521 354 524 353 b 532 357 529 353 531 354 l 824 1018 l 824 0 l 838 0 l 838 1051 b 832 1058 838 1054 835 1057 b 824 1054 828 1058 825 1057 l 526 376 l 228 1054 b 219 1058 226 1057 224 1058 b 214 1051 217 1057 214 1054 l 214 0 z "},"N":{"ha":1051,"x_min":0,"x_max":0,"o":"m 228 0 l 228 1026 l 824 -3 l 829 0 l 838 0 l 838 1051 l 824 1051 l 824 26 l 228 1056 l 221 1051 l 214 1051 l 214 0 z "},"O":{"ha":1051,"x_min":0,"x_max":0,"o":"m 582 -35 l 667 -6 l 751 50 l 781 79 l 810 165 l 838 469 l 838 471 l 810 886 l 810 888 l 781 972 l 751 1001 l 667 1058 l 582 1086 l 469 1086 l 385 1058 l 300 1001 l 271 972 l 246 888 l 214 582 l 214 469 l 242 165 l 271 79 l 300 50 l 385 -6 l 469 -35 z m 472 -21 l 390 7 l 308 61 l 283 88 l 256 168 l 228 471 l 228 581 l 260 885 l 283 965 l 308 990 l 390 1046 l 471 1072 l 581 1072 l 661 1046 l 743 990 l 768 965 l 796 885 l 824 471 l 796 168 l 768 88 l 743 61 l 661 7 l 581 -21 z "},"P":{"ha":1051,"x_min":0,"x_max":0,"o":"m 214 0 l 228 0 l 228 546 l 554 546 l 667 571 l 724 603 l 779 660 l 808 688 l 838 746 l 838 860 l 808 917 l 724 1001 l 667 1031 l 554 1058 l 214 1058 z m 228 560 l 228 1044 l 553 1044 l 661 1017 l 715 990 l 797 908 l 824 856 l 824 749 l 797 696 l 769 669 l 715 614 l 661 585 l 553 560 z "},"Q":{"ha":1051,"x_min":0,"x_max":0,"o":"m 582 -35 l 667 -6 l 694 13 l 854 -89 l 861 -78 l 707 21 l 751 50 l 781 79 l 810 165 l 838 469 l 838 471 l 810 886 l 810 888 l 781 972 l 751 1001 l 667 1058 l 582 1086 l 469 1086 l 385 1058 l 300 1001 l 271 972 l 246 888 l 214 582 l 214 469 l 242 165 l 271 79 l 300 50 l 385 -6 l 469 -35 z m 472 -21 l 390 7 l 308 61 l 283 88 l 256 168 l 228 471 l 228 581 l 260 885 l 283 965 l 308 990 l 390 1046 l 471 1072 l 581 1072 l 661 1046 l 743 990 l 768 965 l 796 885 l 824 471 l 796 168 l 768 88 l 743 61 l 694 29 l 557 117 l 550 104 l 682 21 l 661 7 l 581 -21 z "},"R":{"ha":1051,"x_min":0,"x_max":0,"o":"m 214 0 l 228 0 l 228 546 l 522 546 l 824 -3 l 836 3 l 538 546 l 554 546 l 667 571 l 724 603 l 779 660 l 808 688 l 838 746 l 838 860 l 808 917 l 724 1001 l 667 1031 l 554 1058 l 214 1058 z m 228 560 l 228 1044 l 553 1044 l 661 1017 l 715 990 l 797 908 l 824 856 l 824 749 l 797 696 l 769 669 l 715 614 l 661 585 l 553 560 z "},"S":{"ha":1051,"x_min":0,"x_max":0,"o":"m 414 -7 l 693 -7 l 781 50 l 808 108 l 838 193 l 836 253 l 836 306 l 838 389 l 808 447 l 779 476 l 722 504 l 335 643 l 282 669 l 256 722 l 228 804 l 228 883 l 254 936 l 336 1018 l 417 1044 l 663 1044 l 717 1018 l 771 990 l 797 964 l 824 911 l 822 885 l 836 885 l 838 914 l 808 972 l 779 1001 l 722 1031 l 665 1058 l 414 1058 l 328 1029 l 243 944 l 214 888 l 214 801 l 243 717 l 272 658 l 329 631 l 717 492 l 771 464 l 797 439 l 824 386 l 822 306 l 822 253 l 824 194 l 796 114 l 769 60 l 689 7 l 417 7 l 335 35 l 282 61 l 256 114 l 228 196 l 214 192 l 242 108 l 272 50 l 329 21 z "},"T":{"ha":1051,"x_min":0,"x_max":0,"o":"m 533 0 l 533 1044 l 828 1044 l 828 1058 l 222 1058 l 222 1044 l 519 1044 l 519 0 z "},"U":{"ha":1051,"x_min":0,"x_max":0,"o":"m 414 -7 l 638 -7 l 753 50 l 808 164 l 838 276 l 838 1051 l 824 1051 l 824 278 l 796 168 l 742 61 l 635 7 l 417 7 l 363 33 l 310 61 l 282 114 l 256 168 l 228 278 l 228 1051 l 214 1051 l 214 276 l 243 164 l 269 107 l 299 50 l 357 21 z "},"V":{"ha":940,"x_min":0,"x_max":0,"o":"m 825 1072 l 471 39 l 118 1072 l 104 1067 l 471 -3 l 838 1067 z "},"W":{"ha":1051,"x_min":0,"x_max":0,"o":"m 811 1072 l 665 649 l 521 1072 l 507 1067 l 658 626 l 457 39 l 104 1072 l 90 1067 l 457 -3 l 665 606 l 874 -3 l 1240 1067 l 1228 1072 l 874 39 l 672 626 l 824 1067 z "},"X":{"ha":1094,"x_min":0,"x_max":0,"o":"m 272 -7 l 303 24 l 546 510 l 789 25 l 821 -7 l 879 -7 l 879 7 l 826 7 l 801 32 l 554 526 l 801 1019 l 826 1044 l 881 1044 l 881 1058 l 821 1058 l 790 1028 l 547 540 l 303 1028 l 272 1058 l 214 1058 l 214 1044 l 267 1044 l 292 1019 l 539 525 l 292 32 l 267 7 l 214 7 l 214 -7 z "},"Y":{"ha":1051,"x_min":0,"x_max":0,"o":"m 533 0 l 533 468 l 836 1049 l 824 1054 l 526 485 l 228 1054 l 215 1049 l 519 468 l 519 0 z "},"Z":{"ha":1051,"x_min":0,"x_max":0,"o":"m 835 -10 l 835 4 l 238 10 l 847 1061 l 224 1061 l 224 1047 l 822 1047 l 214 -4 z "},"[":{"ha":694,"x_min":0,"x_max":0,"o":"m 415 -7 l 415 7 l 228 7 l 228 1044 l 415 1044 l 415 1058 l 214 1058 l 214 -7 z "},"\\":{"ha":774,"x_min":0,"x_max":0,"o":"m 546 -1 l 558 3 l 226 1053 l 214 1049 z "},"]":{"ha":694,"x_min":0,"x_max":0,"o":"m 279 -7 l 481 -7 l 481 1058 l 279 1058 l 279 1044 l 467 1044 l 467 7 l 279 7 z "},"_":{"ha":442,"x_min":0,"x_max":0,"o":"m 442 -90 l 442 -76 l 0 -76 l 0 -90 z "},"`":{"ha":694,"x_min":0,"x_max":0,"o":"m 607 879 l 611 892 l 390 947 l 279 1003 l 274 990 l 385 935 z "},"a":{"ha":913,"x_min":0,"x_max":0,"o":"m 499 -35 l 613 -6 l 669 79 l 685 108 l 685 0 l 699 0 l 699 471 l 671 556 l 642 614 l 556 671 l 414 671 l 299 614 l 271 556 l 243 472 l 256 468 l 283 550 l 310 603 l 417 657 l 551 657 l 631 604 l 658 550 l 685 469 l 685 253 l 671 279 l 613 365 l 499 394 l 414 394 l 300 365 l 243 281 l 214 224 l 214 136 l 243 81 l 300 -6 l 414 -35 z m 415 -21 l 308 6 l 256 86 l 228 140 l 228 219 l 256 274 l 308 354 l 415 381 l 497 381 l 604 354 l 658 274 l 685 221 l 685 139 l 658 86 l 604 6 l 497 -21 z "},"b":{"ha":913,"x_min":0,"x_max":0,"o":"m 228 0 l 228 181 l 243 136 l 299 22 l 414 -35 l 500 -35 l 614 22 l 671 135 l 699 221 l 699 417 l 671 500 l 614 614 l 500 671 l 414 671 l 299 614 l 243 500 l 228 457 l 228 996 l 214 996 l 214 0 z m 417 -21 l 310 33 l 256 142 l 228 222 l 228 414 l 256 496 l 310 603 l 417 657 l 496 657 l 604 603 l 658 496 l 685 414 l 685 222 l 658 142 l 604 33 l 496 -21 z "},"c":{"ha":913,"x_min":0,"x_max":0,"o":"m 528 -35 l 614 22 l 643 81 l 671 165 l 671 193 l 657 193 l 657 167 l 631 86 l 603 32 l 524 -21 l 417 -21 l 310 33 l 256 142 l 228 222 l 228 414 l 256 496 l 310 603 l 417 657 l 524 657 l 603 604 l 631 550 l 657 468 l 671 472 l 643 556 l 614 614 l 528 671 l 414 671 l 299 614 l 243 500 l 214 417 l 214 221 l 243 136 l 299 22 l 414 -35 z "},"d":{"ha":913,"x_min":0,"x_max":0,"o":"m 500 -35 l 614 22 l 671 135 l 685 178 l 685 0 l 699 0 l 699 996 l 685 996 l 685 458 l 671 500 l 614 614 l 500 671 l 414 671 l 299 614 l 243 500 l 214 417 l 214 221 l 243 136 l 299 22 l 414 -35 z m 417 -21 l 310 33 l 256 142 l 228 222 l 228 414 l 256 496 l 310 603 l 417 657 l 496 657 l 604 603 l 658 496 l 685 414 l 685 222 l 658 142 l 604 33 l 496 -21 z "},"e":{"ha":913,"x_min":0,"x_max":0,"o":"m 500 -35 l 614 22 l 671 135 l 671 136 l 699 219 l 685 224 l 658 142 l 604 33 l 496 -21 l 417 -21 l 310 33 l 256 142 l 228 222 l 228 325 l 699 325 l 699 417 l 671 500 l 614 614 l 500 671 l 414 671 l 299 614 l 243 500 l 214 417 l 214 221 l 243 136 l 299 22 l 414 -35 z m 228 339 l 228 414 l 256 496 l 310 603 l 417 657 l 496 657 l 604 603 l 658 496 l 685 414 l 685 339 z "},"f":{"ha":775,"x_min":0,"x_max":0,"o":"m 339 0 l 339 521 l 444 574 l 582 574 l 582 588 l 442 588 l 339 536 l 339 608 l 367 856 l 419 963 l 528 1017 l 635 1017 l 742 963 l 768 910 l 796 828 l 808 832 l 781 915 l 751 974 l 638 1031 l 524 1031 l 410 974 l 353 860 l 325 610 l 325 0 z "},"g":{"ha":913,"x_min":0,"x_max":0,"o":"m 500 -35 l 614 22 l 671 135 l 685 178 l 685 28 l 657 -219 l 604 -326 l 496 -381 l 389 -381 l 282 -326 l 256 -274 l 228 -192 l 215 -196 l 243 -279 l 272 -337 l 386 -394 l 500 -394 l 614 -337 l 671 -224 l 699 26 l 699 636 l 685 636 l 685 458 l 671 500 l 614 614 l 500 671 l 414 671 l 299 614 l 243 500 l 214 417 l 214 221 l 243 136 l 299 22 l 414 -35 z m 417 -21 l 310 33 l 256 142 l 228 222 l 228 414 l 256 496 l 310 603 l 417 657 l 496 657 l 604 603 l 658 496 l 685 414 l 685 222 l 658 142 l 604 33 l 496 -21 z "},"h":{"ha":913,"x_min":0,"x_max":0,"o":"m 228 0 l 228 413 l 256 496 l 310 603 l 417 657 l 551 657 l 631 604 l 658 550 l 685 469 l 685 0 l 699 0 l 699 471 l 671 556 l 642 614 l 556 671 l 414 671 l 299 614 l 243 500 l 228 454 l 228 996 l 214 996 l 214 0 z "},"i":{"ha":442,"x_min":0,"x_max":0,"o":"m 251 826 l 283 858 l 283 919 l 251 951 l 190 951 l 158 919 l 158 858 l 190 826 z m 196 840 l 172 864 l 172 914 l 196 938 l 246 938 l 269 914 l 269 864 l 246 840 z m 228 0 l 228 636 l 214 636 l 214 0 z "},"j":{"ha":913,"x_min":0,"x_max":0,"o":"m 504 826 l 536 858 l 536 919 l 504 951 l 443 951 l 411 919 l 411 858 l 443 826 z m 449 840 l 425 864 l 425 914 l 449 938 l 499 938 l 522 914 l 522 864 l 499 840 z m 340 -365 l 428 -308 l 456 -250 l 485 -165 l 485 636 l 471 636 l 471 -164 l 443 -244 l 417 -299 l 338 -351 l 204 -351 l 204 -365 z "},"k":{"ha":913,"x_min":0,"x_max":0,"o":"m 228 0 l 228 272 l 358 378 l 686 -4 l 697 4 l 369 386 l 668 631 l 660 642 l 356 393 l 228 290 l 228 996 l 214 996 l 214 0 z "},"l":{"ha":775,"x_min":0,"x_max":0,"o":"m 469 -7 l 606 -7 l 606 7 l 472 7 l 393 60 l 367 114 l 339 194 l 339 996 l 325 996 l 325 193 l 354 108 l 382 50 z "},"m":{"ha":996,"x_min":0,"x_max":0,"o":"m 228 0 l 228 494 l 282 604 l 363 657 l 414 657 l 465 631 l 492 579 l 492 0 l 506 0 l 506 497 l 558 604 l 639 657 l 690 657 l 742 631 l 768 579 l 768 0 l 782 0 l 782 582 l 753 642 l 693 671 l 635 671 l 549 614 l 506 529 l 506 582 l 475 642 l 417 671 l 357 671 l 271 614 l 228 526 l 228 636 l 214 636 l 214 0 z "},"n":{"ha":913,"x_min":0,"x_max":0,"o":"m 228 0 l 228 413 l 256 496 l 310 603 l 417 657 l 551 657 l 631 604 l 658 550 l 685 469 l 685 0 l 699 0 l 699 471 l 671 556 l 642 614 l 556 671 l 414 671 l 299 614 l 243 500 l 228 454 l 228 636 l 214 636 l 214 0 z "},"o":{"ha":913,"x_min":0,"x_max":0,"o":"m 500 -35 l 614 22 l 671 135 l 699 221 l 699 417 l 671 500 l 614 614 l 500 671 l 414 671 l 299 614 l 243 500 l 214 417 l 214 221 l 243 136 l 299 22 l 414 -35 z m 417 -21 l 310 33 l 256 142 l 228 222 l 228 414 l 256 496 l 310 603 l 417 657 l 496 657 l 604 603 l 658 496 l 685 414 l 685 222 l 658 142 l 604 33 l 496 -21 z "},"p":{"ha":913,"x_min":0,"x_max":0,"o":"m 228 -360 l 228 181 l 243 136 l 299 22 l 414 -35 l 500 -35 l 614 22 l 671 135 l 699 221 l 699 417 l 671 500 l 614 614 l 500 671 l 414 671 l 299 614 l 243 500 l 228 457 l 228 636 l 214 636 l 214 -360 z m 417 -21 l 310 33 l 256 142 l 228 222 l 228 414 l 256 496 l 310 603 l 417 657 l 496 657 l 604 603 l 658 496 l 685 414 l 685 222 l 658 142 l 604 33 l 496 -21 z "},"q":{"ha":913,"x_min":0,"x_max":0,"o":"m 500 -35 l 614 22 l 671 135 l 685 178 l 685 -360 l 699 -360 l 699 636 l 685 636 l 685 458 l 671 500 l 614 614 l 500 671 l 414 671 l 299 614 l 243 500 l 214 417 l 214 221 l 243 136 l 299 22 l 414 -35 z m 417 -21 l 310 33 l 256 142 l 228 222 l 228 414 l 256 496 l 310 603 l 417 657 l 496 657 l 604 603 l 658 496 l 685 414 l 685 222 l 658 142 l 604 33 l 496 -21 z "},"r":{"ha":913,"x_min":0,"x_max":0,"o":"m 228 0 l 228 414 l 256 496 l 310 603 l 417 657 l 524 657 l 603 604 l 631 550 l 657 468 l 671 472 l 643 556 l 614 614 l 528 671 l 414 671 l 299 614 l 243 500 l 228 457 l 228 636 l 214 636 l 214 0 z "},"s":{"ha":913,"x_min":0,"x_max":0,"o":"m 556 -7 l 642 50 l 672 138 l 643 254 l 283 419 l 257 525 l 283 604 l 363 657 l 467 657 l 576 603 l 603 550 l 615 556 l 586 614 l 471 671 l 358 671 l 271 613 l 242 525 l 271 410 l 631 244 l 657 139 l 631 60 l 551 7 l 389 7 l 282 60 l 228 169 l 215 163 l 272 50 l 386 -7 z "},"t":{"ha":775,"x_min":0,"x_max":0,"o":"m 469 -7 l 606 -7 l 606 7 l 472 7 l 393 60 l 367 114 l 339 194 l 339 657 l 554 657 l 554 671 l 339 671 l 339 831 l 325 831 l 325 671 l 222 671 l 222 657 l 325 657 l 325 193 l 354 108 l 382 50 z "},"u":{"ha":913,"x_min":0,"x_max":0,"o":"m 214 636 l 214 165 l 242 81 l 271 22 l 357 -35 l 499 -35 l 614 22 l 669 136 l 685 182 l 685 0 l 699 0 l 699 636 l 685 636 l 685 224 l 657 140 l 603 33 l 496 -21 l 361 -21 l 282 32 l 254 86 l 228 167 l 228 636 z "},"v":{"ha":913,"x_min":0,"x_max":0,"o":"m 456 -19 l 711 633 l 697 639 l 456 19 l 213 639 l 200 633 z "},"w":{"ha":913,"x_min":0,"x_max":0,"o":"m 290 -19 l 457 404 l 622 -19 l 878 633 l 864 639 l 622 19 l 464 424 l 546 633 l 532 639 l 456 443 l 379 639 l 367 633 l 449 425 l 290 19 l 47 639 l 35 633 z "},"x":{"ha":913,"x_min":0,"x_max":0,"o":"m 226 -4 l 457 307 l 686 -4 l 697 4 l 465 318 l 697 632 l 686 640 l 457 329 l 226 640 l 215 632 l 447 318 l 215 4 z "},"y":{"ha":913,"x_min":0,"x_max":0,"o":"m 500 -394 l 614 -337 l 671 -224 l 696 0 l 699 0 l 699 636 l 685 636 l 685 224 l 657 140 l 603 33 l 496 -21 l 361 -21 l 282 32 l 254 86 l 228 167 l 228 636 l 214 636 l 214 165 l 242 81 l 271 22 l 357 -35 l 499 -35 l 614 22 l 669 136 l 685 182 l 685 28 l 657 -219 l 604 -326 l 496 -381 l 389 -381 l 282 -326 l 256 -274 l 228 -192 l 215 -196 l 243 -279 l 272 -337 l 386 -394 z "},"z":{"ha":913,"x_min":0,"x_max":0,"o":"m 692 -7 l 692 7 l 235 7 l 706 643 l 221 643 l 221 629 l 678 629 l 207 -7 z "},"|":{"ha":553,"x_min":0,"x_max":0,"o":"m 269 -69 l 283 -69 l 283 1051 l 269 1051 z "},"Ç":{"ha":1051,"x_min":0,"x_max":0,"o":"m 582 -35 l 667 -6 l 751 50 l 781 79 l 810 164 l 796 168 l 768 88 l 743 61 l 661 7 l 581 -21 l 472 -21 l 390 7 l 308 61 l 283 88 l 256 168 l 228 471 l 228 581 l 260 885 l 283 965 l 308 990 l 390 1046 l 471 1072 l 581 1072 l 661 1046 l 743 990 l 768 965 l 796 883 l 810 888 l 781 972 l 751 1001 l 667 1058 l 582 1086 l 469 1086 l 385 1058 l 300 1001 l 271 972 l 246 888 l 214 582 l 214 469 l 242 165 l 271 79 l 300 50 l 385 -6 l 469 -35 l 506 -35 l 506 -87 l 618 -144 l 668 -193 l 618 -243 l 510 -299 l 515 -311 l 626 -254 l 688 -193 l 626 -133 l 519 -79 l 519 -35 z "},"É":{"ha":1051,"x_min":0,"x_max":0,"o":"m 692 1267 l 692 1281 l 360 1281 l 360 1267 z m 608 546 l 608 560 l 228 560 l 228 1044 l 831 1044 l 831 1058 l 214 1058 l 214 -7 l 831 -7 l 831 7 l 228 7 l 228 546 z "},"á":{"ha":913,"x_min":0,"x_max":0,"o":"m 278 879 l 500 933 l 500 935 l 613 990 l 606 1003 l 496 947 l 275 892 z m 499 -35 l 613 -6 l 669 79 l 685 108 l 685 0 l 699 0 l 699 471 l 671 556 l 642 614 l 556 671 l 414 671 l 299 614 l 271 556 l 243 472 l 256 468 l 283 550 l 310 603 l 417 657 l 551 657 l 631 604 l 658 550 l 685 469 l 685 253 l 671 279 l 613 365 l 499 394 l 414 394 l 300 365 l 243 281 l 214 224 l 214 136 l 243 81 l 300 -6 l 414 -35 z m 415 -21 l 308 6 l 256 86 l 228 140 l 228 219 l 256 274 l 308 354 l 415 381 l 497 381 l 604 354 l 658 274 l 685 221 l 685 139 l 658 86 l 604 6 l 497 -21 z "},"à":{"ha":913,"x_min":0,"x_max":0,"o":"m 607 879 l 611 892 l 390 947 l 279 1003 l 274 990 l 385 935 z m 499 -35 l 613 -6 l 669 79 l 685 108 l 685 0 l 699 0 l 699 471 l 671 556 l 642 614 l 556 671 l 414 671 l 299 614 l 271 556 l 243 472 l 256 468 l 283 550 l 310 603 l 417 657 l 551 657 l 631 604 l 658 550 l 685 469 l 685 253 l 671 279 l 613 365 l 499 394 l 414 394 l 300 365 l 243 281 l 214 224 l 214 136 l 243 81 l 300 -6 l 414 -35 z m 415 -21 l 308 6 l 256 86 l 228 140 l 228 219 l 256 274 l 308 354 l 415 381 l 497 381 l 604 354 l 658 274 l 685 221 l 685 139 l 658 86 l 604 6 l 497 -21 z "},"â":{"ha":913,"x_min":0,"x_max":0,"o":"m 606 879 l 613 892 l 503 946 l 443 1006 l 383 946 l 274 892 l 279 879 l 392 935 l 443 986 l 494 935 z m 499 -35 l 613 -6 l 669 79 l 685 108 l 685 0 l 699 0 l 699 471 l 671 556 l 642 614 l 556 671 l 414 671 l 299 614 l 271 556 l 243 472 l 256 468 l 283 550 l 310 603 l 417 657 l 551 657 l 631 604 l 658 550 l 685 469 l 685 253 l 671 279 l 613 365 l 499 394 l 414 394 l 300 365 l 243 281 l 214 224 l 214 136 l 243 81 l 300 -6 l 414 -35 z m 415 -21 l 308 6 l 256 86 l 228 140 l 228 219 l 256 274 l 308 354 l 415 381 l 497 381 l 604 354 l 658 274 l 685 221 l 685 139 l 658 86 l 604 6 l 497 -21 z "},"ä":{"ha":913,"x_min":0,"x_max":0,"o":"m 307 826 l 339 858 l 339 919 l 307 951 l 246 951 l 214 919 l 214 858 l 246 826 z m 667 826 l 699 858 l 699 919 l 667 951 l 606 951 l 574 919 l 574 858 l 606 826 z m 251 840 l 228 864 l 228 914 l 251 938 l 301 938 l 325 914 l 325 864 l 301 840 z m 611 840 l 588 864 l 588 914 l 611 938 l 661 938 l 685 914 l 685 864 l 661 840 z m 499 -35 l 613 -6 l 669 79 l 685 108 l 685 0 l 699 0 l 699 471 l 671 556 l 642 614 l 556 671 l 414 671 l 299 614 l 271 556 l 243 472 l 256 468 l 283 550 l 310 603 l 417 657 l 551 657 l 631 604 l 658 550 l 685 469 l 685 253 l 671 279 l 613 365 l 499 394 l 414 394 l 300 365 l 243 281 l 214 224 l 214 136 l 243 81 l 300 -6 l 414 -35 z m 415 -21 l 308 6 l 256 86 l 228 140 l 228 219 l 256 274 l 308 354 l 415 381 l 497 381 l 604 354 l 658 274 l 685 221 l 685 139 l 658 86 l 604 6 l 497 -21 z "},"ç":{"ha":913,"x_min":0,"x_max":0,"o":"m 528 -35 l 614 22 l 643 81 l 671 165 l 671 193 l 657 193 l 657 167 l 631 86 l 603 32 l 524 -21 l 417 -21 l 310 33 l 256 142 l 228 222 l 228 414 l 256 496 l 310 603 l 417 657 l 524 657 l 603 604 l 631 550 l 657 468 l 671 472 l 643 556 l 614 614 l 528 671 l 414 671 l 299 614 l 243 500 l 214 417 l 214 221 l 243 136 l 299 22 l 414 -35 l 464 -35 l 464 -87 l 576 -144 l 626 -193 l 576 -243 l 468 -299 l 474 -311 l 585 -254 l 646 -193 l 585 -133 l 478 -79 l 478 -35 z "},"é":{"ha":913,"x_min":0,"x_max":0,"o":"m 278 879 l 500 933 l 500 935 l 613 990 l 606 1003 l 496 947 l 275 892 z m 500 -35 l 614 22 l 671 135 l 671 136 l 699 219 l 685 224 l 658 142 l 604 33 l 496 -21 l 417 -21 l 310 33 l 256 142 l 228 222 l 228 325 l 699 325 l 699 417 l 671 500 l 614 614 l 500 671 l 414 671 l 299 614 l 243 500 l 214 417 l 214 221 l 243 136 l 299 22 l 414 -35 z m 228 339 l 228 414 l 256 496 l 310 603 l 417 657 l 496 657 l 604 603 l 658 496 l 685 414 l 685 339 z "},"è":{"ha":913,"x_min":0,"x_max":0,"o":"m 607 879 l 611 892 l 390 947 l 279 1003 l 274 990 l 385 935 z m 500 -35 l 614 22 l 671 135 l 671 136 l 699 219 l 685 224 l 658 142 l 604 33 l 496 -21 l 417 -21 l 310 33 l 256 142 l 228 222 l 228 325 l 699 325 l 699 417 l 671 500 l 614 614 l 500 671 l 414 671 l 299 614 l 243 500 l 214 417 l 214 221 l 243 136 l 299 22 l 414 -35 z m 228 339 l 228 414 l 256 496 l 310 603 l 417 657 l 496 657 l 604 603 l 658 496 l 685 414 l 685 339 z "},"ê":{"ha":913,"x_min":0,"x_max":0,"o":"m 606 879 l 613 892 l 503 946 l 443 1006 l 383 946 l 274 892 l 279 879 l 392 935 l 443 986 l 494 935 z m 500 -35 l 614 22 l 671 135 l 671 136 l 699 219 l 685 224 l 658 142 l 604 33 l 496 -21 l 417 -21 l 310 33 l 256 142 l 228 222 l 228 325 l 699 325 l 699 417 l 671 500 l 614 614 l 500 671 l 414 671 l 299 614 l 243 500 l 214 417 l 214 221 l 243 136 l 299 22 l 414 -35 z m 228 339 l 228 414 l 256 496 l 310 603 l 417 657 l 496 657 l 604 603 l 658 496 l 685 414 l 685 339 z "},"ë":{"ha":913,"x_min":0,"x_max":0,"o":"m 307 826 l 339 858 l 339 919 l 307 951 l 246 951 l 214 919 l 214 858 l 246 826 z m 667 826 l 699 858 l 699 919 l 667 951 l 606 951 l 574 919 l 574 858 l 606 826 z m 251 840 l 228 864 l 228 914 l 251 938 l 301 938 l 325 914 l 325 864 l 301 840 z m 611 840 l 588 864 l 588 914 l 611 938 l 661 938 l 685 914 l 685 864 l 661 840 z m 500 -35 l 614 22 l 671 135 l 671 136 l 699 219 l 685 224 l 658 142 l 604 33 l 496 -21 l 417 -21 l 310 33 l 256 142 l 228 222 l 228 325 l 699 325 l 699 417 l 671 500 l 614 614 l 500 671 l 414 671 l 299 614 l 243 500 l 214 417 l 214 221 l 243 136 l 299 22 l 414 -35 z m 228 339 l 228 414 l 256 496 l 310 603 l 417 657 l 496 657 l 604 603 l 658 496 l 685 414 l 685 339 z "},"í":{"ha":442,"x_min":0,"x_max":0,"o":"m 388 879 l 390 892 l 169 947 l 60 1003 l 53 990 l 165 935 l 165 933 z m 228 0 l 228 636 l 214 636 l 214 0 z "},"ì":{"ha":442,"x_min":0,"x_max":0,"o":"m 56 879 l 278 933 l 278 935 l 390 990 l 383 1003 l 274 947 l 53 892 z m 228 0 l 228 636 l 214 636 l 214 0 z "},"î":{"ha":442,"x_min":0,"x_max":0,"o":"m 383 879 l 390 892 l 281 946 l 221 1006 l 161 946 l 51 892 l 57 879 l 169 935 l 221 986 l 272 935 z m 228 0 l 228 636 l 214 636 l 214 0 z "},"ï":{"ha":442,"x_min":0,"x_max":0,"o":"m 86 826 l 118 858 l 118 919 l 86 951 l 25 951 l -7 919 l -7 858 l 25 826 z m 417 826 l 449 858 l 449 919 l 417 951 l 356 951 l 324 919 l 324 858 l 356 826 z m 31 840 l 7 864 l 7 914 l 31 938 l 81 938 l 104 914 l 104 864 l 81 840 z m 361 840 l 338 864 l 338 914 l 361 938 l 411 938 l 435 914 l 435 864 l 411 840 z m 228 0 l 228 636 l 214 636 l 214 0 z "},"ó":{"ha":913,"x_min":0,"x_max":0,"o":"m 278 879 l 500 933 l 500 935 l 613 990 l 606 1003 l 496 947 l 275 892 z m 500 -35 l 614 22 l 671 135 l 699 221 l 699 417 l 671 500 l 614 614 l 500 671 l 414 671 l 299 614 l 243 500 l 214 417 l 214 221 l 243 136 l 299 22 l 414 -35 z m 417 -21 l 310 33 l 256 142 l 228 222 l 228 414 l 256 496 l 310 603 l 417 657 l 496 657 l 604 603 l 658 496 l 685 414 l 685 222 l 658 142 l 604 33 l 496 -21 z "},"ò":{"ha":913,"x_min":0,"x_max":0,"o":"m 607 879 l 611 892 l 390 947 l 279 1003 l 274 990 l 385 935 z m 500 -35 l 614 22 l 671 135 l 699 221 l 699 417 l 671 500 l 614 614 l 500 671 l 414 671 l 299 614 l 243 500 l 214 417 l 214 221 l 243 136 l 299 22 l 414 -35 z m 417 -21 l 310 33 l 256 142 l 228 222 l 228 414 l 256 496 l 310 603 l 417 657 l 496 657 l 604 603 l 658 496 l 685 414 l 685 222 l 658 142 l 604 33 l 496 -21 z "},"ô":{"ha":913,"x_min":0,"x_max":0,"o":"m 606 879 l 613 892 l 503 946 l 443 1006 l 383 946 l 274 892 l 279 879 l 392 935 l 443 986 l 494 935 z m 500 -35 l 614 22 l 671 135 l 699 221 l 699 417 l 671 500 l 614 614 l 500 671 l 414 671 l 299 614 l 243 500 l 214 417 l 214 221 l 243 136 l 299 22 l 414 -35 z m 417 -21 l 310 33 l 256 142 l 228 222 l 228 414 l 256 496 l 310 603 l 417 657 l 496 657 l 604 603 l 658 496 l 685 414 l 685 222 l 658 142 l 604 33 l 496 -21 z "},"ö":{"ha":913,"x_min":0,"x_max":0,"o":"m 307 826 l 339 858 l 339 919 l 307 951 l 246 951 l 214 919 l 214 858 l 246 826 z m 667 826 l 699 858 l 699 919 l 667 951 l 606 951 l 574 919 l 574 858 l 606 826 z m 251 840 l 228 864 l 228 914 l 251 938 l 301 938 l 325 914 l 325 864 l 301 840 z m 611 840 l 588 864 l 588 914 l 611 938 l 661 938 l 685 914 l 685 864 l 661 840 z m 500 -35 l 614 22 l 671 135 l 699 221 l 699 417 l 671 500 l 614 614 l 500 671 l 414 671 l 299 614 l 243 500 l 214 417 l 214 221 l 243 136 l 299 22 l 414 -35 z m 417 -21 l 310 33 l 256 142 l 228 222 l 228 414 l 256 496 l 310 603 l 417 657 l 496 657 l 604 603 l 658 496 l 685 414 l 685 222 l 658 142 l 604 33 l 496 -21 z "},"ú":{"ha":913,"x_min":0,"x_max":0,"o":"m 278 879 l 500 933 l 500 935 l 613 990 l 606 1003 l 496 947 l 275 892 z m 214 636 l 214 165 l 242 81 l 271 22 l 357 -35 l 499 -35 l 614 22 l 669 136 l 685 182 l 685 0 l 699 0 l 699 636 l 685 636 l 685 224 l 657 140 l 603 33 l 496 -21 l 361 -21 l 282 32 l 254 86 l 228 167 l 228 636 z "},"ù":{"ha":913,"x_min":0,"x_max":0,"o":"m 607 879 l 611 892 l 390 947 l 279 1003 l 274 990 l 385 935 z m 214 636 l 214 165 l 242 81 l 271 22 l 357 -35 l 499 -35 l 614 22 l 669 136 l 685 182 l 685 0 l 699 0 l 699 636 l 685 636 l 685 224 l 657 140 l 603 33 l 496 -21 l 361 -21 l 282 32 l 254 86 l 228 167 l 228 636 z "},"û":{"ha":913,"x_min":0,"x_max":0,"o":"m 606 879 l 613 892 l 503 946 l 443 1006 l 383 946 l 274 892 l 279 879 l 392 935 l 443 986 l 494 935 z m 214 636 l 214 165 l 242 81 l 271 22 l 357 -35 l 499 -35 l 614 22 l 669 136 l 685 182 l 685 0 l 699 0 l 699 636 l 685 636 l 685 224 l 657 140 l 603 33 l 496 -21 l 361 -21 l 282 32 l 254 86 l 228 167 l 228 636 z "},"ü":{"ha":913,"x_min":0,"x_max":0,"o":"m 307 826 l 339 858 l 339 919 l 307 951 l 246 951 l 214 919 l 214 858 l 246 826 z m 667 826 l 699 858 l 699 919 l 667 951 l 606 951 l 574 919 l 574 858 l 606 826 z m 251 840 l 228 864 l 228 914 l 251 938 l 301 938 l 325 914 l 325 864 l 301 840 z m 611 840 l 588 864 l 588 914 l 611 938 l 661 938 l 685 914 l 685 864 l 661 840 z m 214 636 l 214 165 l 242 81 l 271 22 l 357 -35 l 499 -35 l 614 22 l 669 136 l 685 182 l 685 0 l 699 0 l 699 636 l 685 636 l 685 224 l 657 140 l 603 33 l 496 -21 l 361 -21 l 282 32 l 254 86 l 228 167 l 228 636 z "},"´":{"ha":694,"x_min":0,"x_max":0,"o":"m 278 879 l 500 933 l 500 935 l 613 990 l 606 1003 l 496 947 l 275 892 z "},"¨":{"ha":913,"x_min":0,"x_max":0,"o":"m 307 826 l 339 858 l 339 919 l 307 951 l 246 951 l 214 919 l 214 858 l 246 826 z m 667 826 l 699 858 l 699 919 l 667 951 l 606 951 l 574 919 l 574 858 l 606 826 z m 251 840 l 228 864 l 228 914 l 251 938 l 301 938 l 325 914 l 325 864 l 301 840 z m 611 840 l 588 864 l 588 914 l 611 938 l 661 938 l 685 914 l 685 864 l 661 840 z "},"±":{"ha":1051,"x_min":0,"x_max":0,"o":"m 278 699 l 278 685 l 518 685 l 518 539 l 532 539 l 532 685 l 775 685 l 775 699 l 532 699 l 532 844 l 518 844 l 518 699 z m 278 421 l 278 407 l 775 407 l 775 421 z "},"¥":{"ha":1051,"x_min":0,"x_max":0,"o":"m 533 0 l 533 468 l 588 574 l 838 574 l 838 588 l 594 588 l 661 713 l 838 713 l 838 726 l 668 726 l 836 1049 l 824 1054 l 653 726 l 400 726 l 228 1054 l 215 1049 l 383 726 l 214 726 l 214 713 l 392 713 l 457 588 l 214 588 l 214 574 l 464 574 l 519 468 l 519 0 z m 472 588 l 407 713 l 644 713 l 579 588 z m 479 574 l 572 574 l 526 485 z "},"æ":{"ha":1383,"x_min":0,"x_max":0,"o":"m 499 -35 l 613 -6 l 669 79 l 685 108 l 685 0 l 699 0 l 699 181 l 714 136 l 769 22 l 885 -35 l 971 -35 l 1085 22 l 1142 135 l 1142 136 l 1169 219 l 1156 224 l 1129 142 l 1075 33 l 967 -21 l 888 -21 l 781 33 l 726 142 l 699 222 l 699 325 l 1169 325 l 1169 417 l 1142 500 l 1085 614 l 971 671 l 885 671 l 769 614 l 714 500 l 699 457 l 699 471 l 671 556 l 642 614 l 556 671 l 414 671 l 299 614 l 271 556 l 243 472 l 256 468 l 283 550 l 310 603 l 417 657 l 551 657 l 631 604 l 658 550 l 685 469 l 685 253 l 671 279 l 613 365 l 499 394 l 414 394 l 300 365 l 243 281 l 214 224 l 214 136 l 243 81 l 300 -6 l 414 -35 z m 699 339 l 699 414 l 726 496 l 781 603 l 888 657 l 967 657 l 1075 603 l 1129 496 l 1156 414 l 1156 339 z m 415 -21 l 308 6 l 256 86 l 228 140 l 228 219 l 256 274 l 308 354 l 415 381 l 497 381 l 604 354 l 658 274 l 685 221 l 685 139 l 658 86 l 604 6 l 497 -21 z "},"¿":{"ha":913,"x_min":0,"x_max":0,"o":"m 439 504 l 407 472 l 407 411 l 439 379 l 500 379 l 532 411 l 532 472 l 500 504 z m 494 490 l 518 467 l 518 417 l 494 393 l 444 393 l 421 417 l 421 467 l 444 490 z m 476 276 l 463 276 l 463 88 l 326 33 l 242 -82 l 242 -251 l 299 -337 l 413 -394 l 526 -394 l 640 -337 l 697 -254 l 685 -246 l 631 -328 l 524 -381 l 417 -381 l 308 -328 l 256 -247 l 256 -86 l 336 21 l 476 78 z "},"¡":{"ha":553,"x_min":0,"x_max":0,"o":"m 307 504 l 246 504 l 214 472 l 214 411 l 246 379 l 307 379 l 339 411 l 339 472 z m 251 490 l 301 490 l 325 467 l 325 417 l 301 393 l 251 393 l 228 417 l 228 467 z m 269 276 l 269 -387 l 283 -387 l 283 276 z "},"À":{"ha":940,"x_min":0,"x_max":0,"o":"m 636 1267 l 636 1281 l 304 1281 l 304 1267 z m 825 -3 l 838 3 l 471 1072 l 104 3 l 118 -3 l 268 436 l 675 436 z m 471 1031 l 671 449 l 272 450 z "},"‘":{"ha":553,"x_min":0,"x_max":0,"o":"m 256 1058 l 214 1017 l 214 872 l 246 840 l 307 840 l 339 872 l 339 933 l 307 965 l 256 965 z m 301 951 l 325 928 l 325 878 l 301 854 l 251 854 l 228 878 l 228 1011 l 242 1025 l 242 951 z "},"’":{"ha":553,"x_min":0,"x_max":0,"o":"m 297 840 l 339 882 l 339 1026 l 307 1058 l 246 1058 l 214 1026 l 214 965 l 246 933 l 297 933 z m 251 947 l 228 971 l 228 1021 l 251 1044 l 301 1044 l 325 1021 l 325 888 l 311 874 l 311 947 z "},"÷":{"ha":1051,"x_min":0,"x_max":0,"o":"m 556 757 l 588 789 l 588 850 l 556 882 l 494 882 l 463 850 l 463 789 l 494 757 z m 500 771 l 476 794 l 476 844 l 500 868 l 550 868 l 574 844 l 574 794 l 550 771 z m 278 560 l 278 546 l 775 546 l 775 560 z m 556 224 l 588 256 l 588 317 l 556 349 l 494 349 l 463 317 l 463 256 l 494 224 z m 500 238 l 476 261 l 476 311 l 500 335 l 550 335 l 574 311 l 574 261 l 550 238 z "},"ÿ":{"ha":913,"x_min":0,"x_max":0,"o":"m 307 826 l 339 858 l 339 919 l 307 951 l 246 951 l 214 919 l 214 858 l 246 826 z m 667 826 l 699 858 l 699 919 l 667 951 l 606 951 l 574 919 l 574 858 l 606 826 z m 251 840 l 228 864 l 228 914 l 251 938 l 301 938 l 325 914 l 325 864 l 301 840 z m 611 840 l 588 864 l 588 914 l 611 938 l 661 938 l 685 914 l 685 864 l 661 840 z m 500 -394 l 614 -337 l 671 -224 l 696 0 l 699 0 l 699 636 l 685 636 l 685 224 l 657 140 l 603 33 l 496 -21 l 361 -21 l 282 32 l 254 86 l 228 167 l 228 636 l 214 636 l 214 165 l 242 81 l 271 22 l 357 -35 l 499 -35 l 614 22 l 669 136 l 685 182 l 685 28 l 657 -219 l 604 -326 l 496 -381 l 389 -381 l 282 -326 l 256 -274 l 228 -192 l 215 -196 l 243 -279 l 272 -337 l 386 -394 z "},"Â":{"ha":940,"x_min":0,"x_max":0,"o":"m 636 1267 l 636 1281 l 304 1281 l 304 1267 z m 825 -3 l 838 3 l 471 1072 l 104 3 l 118 -3 l 268 436 l 675 436 z m 471 1031 l 671 449 l 272 450 z "},"Ê":{"ha":1051,"x_min":0,"x_max":0,"o":"m 692 1267 l 692 1281 l 360 1281 l 360 1267 z m 608 546 l 608 560 l 228 560 l 228 1044 l 831 1044 l 831 1058 l 214 1058 l 214 -7 l 831 -7 l 831 7 l 228 7 l 228 546 z "},"Á":{"ha":940,"x_min":0,"x_max":0,"o":"m 636 1267 l 636 1281 l 304 1281 l 304 1267 z m 825 -3 l 838 3 l 471 1072 l 104 3 l 118 -3 l 268 436 l 675 436 z m 471 1031 l 671 449 l 272 450 z "},"È":{"ha":1051,"x_min":0,"x_max":0,"o":"m 692 1267 l 692 1281 l 360 1281 l 360 1267 z m 608 546 l 608 560 l 228 560 l 228 1044 l 831 1044 l 831 1058 l 214 1058 l 214 -7 l 831 -7 l 831 7 l 228 7 l 228 546 z "},"Í":{"ha":1051,"x_min":0,"x_max":0,"o":"m 692 1267 l 692 1281 l 360 1281 l 360 1267 z m 226 1019 l 251 1044 l 497 1044 l 497 1058 l 246 1058 l 217 1029 z m 825 1019 l 835 1029 l 806 1058 l 499 1058 l 499 1044 l 518 1044 l 519 7 l 251 7 l 226 33 l 217 22 l 246 -7 l 806 -7 l 835 22 l 825 33 l 800 7 l 533 7 l 532 1044 l 800 1044 z "},"Î":{"ha":1051,"x_min":0,"x_max":0,"o":"m 692 1267 l 692 1281 l 360 1281 l 360 1267 z m 226 1019 l 251 1044 l 497 1044 l 497 1058 l 246 1058 l 217 1029 z m 825 1019 l 835 1029 l 806 1058 l 499 1058 l 499 1044 l 518 1044 l 519 7 l 251 7 l 226 33 l 217 22 l 246 -7 l 806 -7 l 835 22 l 825 33 l 800 7 l 533 7 l 532 1044 l 800 1044 z "},"Ì":{"ha":1051,"x_min":0,"x_max":0,"o":"m 692 1267 l 692 1281 l 360 1281 l 360 1267 z m 226 1019 l 251 1044 l 497 1044 l 497 1058 l 246 1058 l 217 1029 z m 825 1019 l 835 1029 l 806 1058 l 499 1058 l 499 1044 l 518 1044 l 519 7 l 251 7 l 226 33 l 217 22 l 246 -7 l 806 -7 l 835 22 l 825 33 l 800 7 l 533 7 l 532 1044 l 800 1044 z "},"Ó":{"ha":1051,"x_min":0,"x_max":0,"o":"m 692 1267 l 692 1281 l 360 1281 l 360 1267 z m 582 -35 l 667 -6 l 751 50 l 781 79 l 810 165 l 838 469 l 838 471 l 810 886 l 810 888 l 781 972 l 751 1001 l 667 1058 l 582 1086 l 469 1086 l 385 1058 l 300 1001 l 271 972 l 246 888 l 214 582 l 214 469 l 242 165 l 271 79 l 300 50 l 385 -6 l 469 -35 z m 472 -21 l 390 7 l 308 61 l 283 88 l 256 168 l 228 471 l 228 581 l 260 885 l 283 965 l 308 990 l 390 1046 l 471 1072 l 581 1072 l 661 1046 l 743 990 l 768 965 l 796 885 l 824 471 l 796 168 l 768 88 l 743 61 l 661 7 l 581 -21 z "},"Ô":{"ha":1051,"x_min":0,"x_max":0,"o":"m 692 1267 l 692 1281 l 360 1281 l 360 1267 z m 582 -35 l 667 -6 l 751 50 l 781 79 l 810 165 l 838 469 l 838 471 l 810 886 l 810 888 l 781 972 l 751 1001 l 667 1058 l 582 1086 l 469 1086 l 385 1058 l 300 1001 l 271 972 l 246 888 l 214 582 l 214 469 l 242 165 l 271 79 l 300 50 l 385 -6 l 469 -35 z m 472 -21 l 390 7 l 308 61 l 283 88 l 256 168 l 228 471 l 228 581 l 260 885 l 283 965 l 308 990 l 390 1046 l 471 1072 l 581 1072 l 661 1046 l 743 990 l 768 965 l 796 885 l 824 471 l 796 168 l 768 88 l 743 61 l 661 7 l 581 -21 z "},"Ò":{"ha":1051,"x_min":0,"x_max":0,"o":"m 692 1267 l 692 1281 l 360 1281 l 360 1267 z m 582 -35 l 667 -6 l 751 50 l 781 79 l 810 165 l 838 469 l 838 471 l 810 886 l 810 888 l 781 972 l 751 1001 l 667 1058 l 582 1086 l 469 1086 l 385 1058 l 300 1001 l 271 972 l 246 888 l 214 582 l 214 469 l 242 165 l 271 79 l 300 50 l 385 -6 l 469 -35 z m 472 -21 l 390 7 l 308 61 l 283 88 l 256 168 l 228 471 l 228 581 l 260 885 l 283 965 l 308 990 l 390 1046 l 471 1072 l 581 1072 l 661 1046 l 743 990 l 768 965 l 796 885 l 824 471 l 796 168 l 768 88 l 743 61 l 661 7 l 581 -21 z "},"Ú":{"ha":1051,"x_min":0,"x_max":0,"o":"m 692 1267 l 692 1281 l 360 1281 l 360 1267 z m 414 -7 l 638 -7 l 753 50 l 808 164 l 838 276 l 838 1051 l 824 1051 l 824 278 l 796 168 l 742 61 l 635 7 l 417 7 l 363 33 l 310 61 l 282 114 l 256 168 l 228 278 l 228 1051 l 214 1051 l 214 276 l 243 164 l 269 107 l 299 50 l 357 21 z "},"Û":{"ha":1051,"x_min":0,"x_max":0,"o":"m 692 1267 l 692 1281 l 360 1281 l 360 1267 z m 414 -7 l 638 -7 l 753 50 l 808 164 l 838 276 l 838 1051 l 824 1051 l 824 278 l 796 168 l 742 61 l 635 7 l 417 7 l 363 33 l 310 61 l 282 114 l 256 168 l 228 278 l 228 1051 l 214 1051 l 214 276 l 243 164 l 269 107 l 299 50 l 357 21 z "},"Ù":{"ha":1051,"x_min":0,"x_max":0,"o":"m 692 1267 l 692 1281 l 360 1281 l 360 1267 z m 414 -7 l 638 -7 l 753 50 l 808 164 l 838 276 l 838 1051 l 824 1051 l 824 278 l 796 168 l 742 61 l 635 7 l 417 7 l 363 33 l 310 61 l 282 114 l 256 168 l 228 278 l 228 1051 l 214 1051 l 214 276 l 243 164 l 269 107 l 299 50 l 357 21 z "},"ˆ":{"ha":694,"x_min":0,"x_max":0,"o":"m 606 879 l 613 892 l 503 946 l 443 1006 l 383 946 l 274 892 l 279 879 l 392 935 l 443 986 l 494 935 z "},"˙":{"ha":442,"x_min":0,"x_max":0,"o":"m 251 826 l 283 858 l 283 919 l 251 951 l 190 951 l 158 919 l 158 858 l 190 826 z m 196 840 l 172 864 l 172 914 l 196 938 l 246 938 l 269 914 l 269 864 l 246 840 z "},"¸":{"ha":694,"x_min":0,"x_max":0,"o":"m 446 -283 l 557 -226 l 618 -165 l 557 -106 l 450 -51 l 450 0 l 436 0 l 436 -60 l 549 -117 l 599 -165 l 549 -215 l 440 -271 z "},"ˇ":{"ha":694,"x_min":0,"x_max":0,"o":"m 606 1006 l 494 950 l 443 899 l 392 950 l 279 1006 l 274 993 l 383 939 l 443 879 l 503 939 l 613 993 z "},"«":{"ha":774,"x_min":0,"x_max":0,"o":"m 382 106 l 392 115 l 228 279 l 228 301 l 392 438 l 383 449 l 214 307 l 214 274 z m 549 106 l 558 115 l 394 279 l 394 301 l 558 438 l 549 449 l 381 307 l 381 274 z "},"»":{"ha":774,"x_min":0,"x_max":0,"o":"m 392 106 l 560 274 l 560 307 l 390 449 l 382 438 l 546 301 l 546 279 l 382 115 z m 225 106 l 393 274 l 393 307 l 225 449 l 215 438 l 379 301 l 379 279 l 215 115 z "}}}
